<?xml version="1.0" encoding="UTF-8" standalone="no"?>
<!-- Created with Inkscape (http://www.inkscape.org/) -->

<svg
   version="1.1"
   id="svg1"
   width="226.11734"
   height="216.81183"
   viewBox="0 0 226.11734 216.81183"
   xmlns="http://www.w3.org/2000/svg"
   xmlns:svg="http://www.w3.org/2000/svg">
  <defs
     id="defs1" />
  <g
     id="g1"
     transform="translate(-137,-139.18817)">
    <g
       id="g3491">
      <path
         style="fill:#04b3a4;stroke:none"
         d="m 137,326 1,1 -1,-1 m 174,0 1,1 -1,-1 m -4,1 1,1 -1,-1 m -51,5 1,1 -1,-1 m 2,1 1,1 -1,-1 m 5,3 1,1 -1,-1 m 2,1 1,1 -1,-1 m 9,5 1,1 -1,-1 m 7,4 1,1 -1,-1 m 2,1 1,1 -1,-1 m 9,5 1,1 -1,-1 m 10,2 1,1 -1,-1 m -4,1 1,1 -1,-1 m 2,0 1,1 z"
         id="path3503" />
      <path
         style="fill:#fff;stroke:none;stroke-width:1.04152"
         d="m 137,320.32266 c 2.30502,12.09311 22.21825,7.59338 31,7.59338 h 59 c 11.69879,0 22.55045,-1.5128 33,4.96683 10.72522,6.6506 31.57343,25.36307 44,21.06762 l 0.94281,-1.9633 C 290.34537,344.49621 276.6904,326.07325 261,321.86193 c -9.38673,-2.51942 -21.34393,-0.4545 -31,-0.4545 -29.82138,0 -63.68771,4.81842 -93,-1.08477 z"
         id="path3502" />
      <path
         style="fill:#04b3a4;stroke:none"
         d="m 141,233 1,1 -1,-1 m 81,0 1,1 -1,-1 m 45,1 1,1 -1,-1 m -34,1 1,1 -1,-1 m -19,1 1,1 -1,-1 m 9,0 1,1 -1,-1 m 43,0 -1,2 1,-2 m 19,1 1,1 -1,-1 m -143,1 1,1 -1,-1 m 93,0 1,1 -1,-1 m -92,2 1,1 -1,-1 m 131,0 1,1 -1,-1 m -48,1 1,1 -1,-1 m 133,0 1,1 -1,-1 m -76,1 1,1 -1,-1 m -12,1 1,1 -1,-1 m -42,1 1,1 -1,-1 m 52,1 1,1 -1,-1 m -52,2 1,1 -1,-1 m 131,0 1,1 -1,-1 m -139,1 1,1 -1,-1 m 55,2 1,1 -1,-1 m -128,1 1,1 -1,-1 m 125.66666,0.33333 0.66668,0.33334 -0.66668,-0.33334 M 362,264 361,254 m -210,1 1,1 -1,-1 m 67,4 1,1 -1,-1 m -62,1 1,1 -1,-1 m 67,3 1,1 -1,-1 m -61,1 1,1 -1,-1 m 63,1 2,2 -2,-2 m -58,1 1,1 -1,-1 m 8,2 1,1 -1,-1 m 185,1 1,1 -1,-1 m -2,9 1,1 -1,-1 m -1,4 1,1 -1,-1 m -1,2 1,1 -1,-1 m -1,3 1,1 -1,-1 m -1,2 1,1 -1,-1 m -1,2 1,1 -1,-1 m -1,2 1,1 -1,-1 m -2,3 1,1 -1,-1 m -4,6 -1,2 1,-2 m -9,9 1,1 -1,-1 m -5,4 -1,2 1,-2 m -4,3 1,1 -1,-1 m -2,1 1,1 -1,-1 m -5,3 1,1 z"
         id="path3501" />
      <path
         style="fill:#fff;stroke:none"
         d="m 351.42743,225.86263 c 1.8255,22.34995 4.9588,45.56575 -10.57251,64.13352 -6.01825,7.19483 -12.80093,13.63431 -20.85492,18.5401 -4.11572,2.50696 -12.15964,4.17484 -14.97223,8.11268 C 303.02368,319.45477 304,324.72858 304,328 c 33.505,-4.51544 56.99792,-36.47992 57,-69 6.1e-4,-9.54097 -2.84573,-25.65553 -9.57257,-33.13737 z"
         id="path3500" />
      <path
         style="fill:#04b3a4;stroke:none"
         d="m 232,227 1,1 -1,-1 m -92,2 1,1 z"
         id="path3499" />
      <path
         style="fill:#fff;stroke:none"
         d="m 352,225 2,4 z"
         id="path3498" />
      <path
         style="fill:#04b3a4;stroke:none"
         d="m 244.66667,219.33334 0.66666,0.33332 -0.66666,-0.33332 M 254,219 l 1,1 -1,-1 m 4.66666,0.33334 0.66668,0.33332 -0.66668,-0.33332 M 251,220 l 1,1 -1,-1 m 25,3 1,1 -1,-1 m 9,0 1,1 z"
         id="path3497" />
      <path
         style="fill:#fff;stroke:none"
         d="m 243,219.73227 c -9.75258,0.40515 -14.45831,12.21689 -6.78627,18.83408 4.47565,3.86029 16.06374,2.72167 21.78627,2.37426 8.93512,-0.54245 13.54254,-12.32467 6.77161,-18.62658 -4.79938,-4.46692 -15.66462,-2.83545 -21.77161,-2.58176 z"
         id="path3496" />
      <path
         style="fill:#04b3a4;stroke:none"
         d="m 241.66667,219.33334 0.66666,0.33332 z"
         id="path3495" />
      <path
         style="fill:#fff;stroke:none"
         d="m 140.79326,218.62981 c 7.2e-4,6.57541 -0.0465,13.02229 1.76539,19.37019 11.20737,39.26471 55.82297,30.86258 87.74681,30.86258 L 229,268 c -4.09111,-3.11438 -10.02629,-9.27998 -15.06126,-10.79157 -16.53679,-4.96468 -31.35736,3.82715 -47.93874,-4.58189 -15.36594,-7.79265 -17.82301,-20.21402 -25.20674,-33.99673 z"
         id="path3494" />
      <path
         style="fill:#04b3a4;stroke:none"
         d="m 229,212 1,1 -1,-1 m 41,1 1,1 -1,-1 m -51,1 1,1 -1,-1 m 11,0 1,1 -1,-1 m 52,2 1,1 -1,-1 m -9,2 1,1 z"
         id="path3493" />
      <path
         style="fill:#fff;stroke:none"
         d="m 227,252 c 5.13313,-9.30807 -5.11827,-12.67813 -4.72145,-22 0.36359,-8.54132 8.83554,-12.16943 5.72145,-21 -20.07237,4.05893 -16.91158,35.80429 -1,43 m 46,-43 c -4.38644,7.99417 2.74948,10.41611 4.46375,18 1.8547,8.20523 -7.40406,13.29327 -6.40433,19.94058 0.97626,6.49115 8.0823,1.73592 10.15121,-0.98456 C 289.68848,234.80829 287.49417,213.93069 273,209 Z"
         id="path3492" />
      <path
         style="fill:#04b3a4;stroke:none"
         d="M 216,258 C 209.68176,251.17192 201.37173,246.08942 196.47916,238 183.96735,217.31287 194.65736,188.89655 220,186.17361 247.34607,183.23541 276.48447,186 304,186 c 10.12939,0 22.1059,1.74191 32,-0.52933 14.69464,-3.3732 29.60333,-24.01944 26.76773,-39.41589 C 361.48611,139.09601 351.15814,141 346,141 h -52 c -38.24727,0 -90.18823,-9.3656 -123,14.48999 -29.17688,21.21283 -46.55928,71.26004 -10,94.81017 C 177.24393,260.76389 197.61343,258 216,258 m 91,-55 c 2.68652,9.39767 7.60477,17.83878 6.90894,28 -4.12595,60.25131 -78.54502,49 -119.90894,49 -9.98074,0 -22.65424,-2.08954 -32,1.87964 -11.62325,4.9364 -19.42215,16.26294 -22.95757,28.12036 -1.0834,3.63361 -3.96179,11.92178 1.10572,13.56635 C 149.65628,326.6521 164.00963,324 174,324 h 74 c 24.26498,0 34.95285,23.73663 57,28 0,-7.26984 0.5192,-14.76013 -0.16977,-22 -0.36148,-3.79846 -2.06076,-9.10358 0.19754,-12.60648 2.83344,-4.39498 11.57214,-6.17709 15.97223,-8.85727 9.72803,-5.92547 19.01987,-14.61398 24.71219,-24.53625 5.36014,-9.3432 9.76715,-20.10568 10.24844,-31 0.27644,-6.25696 -1.05285,-21.60665 -3.87599,-26.99951 -2.03021,-3.87815 -5.01937,-7.82025 -7.06132,-9.6637 C 336.45158,208.59832 318.84772,198.01147 307,203 Z"
         id="path3491" />
    </g>
  </g>
</svg>
